HIERARCHY
ROOT Hips
{
 OFFSET 0.000000 0.000000 0.000000
 CHANNELS 6 Xposition Yposition Zposition Yrotation Xrotation Zrotation
 JOINT Chest
 {
  OFFSET 0.000000 9.585900 0.002600
  CHANNELS 3 Yrotation Xrotation Zrotation
  JOINT Chest2
  {
   OFFSET 0.000000 9.601200 -0.005300
   CHANNELS 3 Yrotation Xrotation Zrotation
   JOINT Chest3
   {
    OFFSET 0.000000 9.561800 0.000000
    CHANNELS 3 Yrotation Xrotation Zrotation
    JOINT Chest4
    {
     OFFSET 0.000000 9.552100 0.000000
     CHANNELS 3 Yrotation Xrotation Zrotation
     JOINT Neck
     {
      OFFSET 0.000000 14.453000 0.000000
      CHANNELS 3 Yrotation Xrotation Zrotation
      JOINT Head
      {
       OFFSET 0.000000 8.936500 -0.011300
       CHANNELS 3 Yrotation Xrotation Zrotation
       End Site
       {
        OFFSET 0.000000 17.073600 -0.006000
       }
      }
     }
     JOINT RightCollar
     {
      OFFSET -2.921100 9.558500 0.000000
      CHANNELS 3 Yrotation Xrotation Zrotation
      JOINT RightShoulder
      {
       OFFSET -13.519700 0.000000 0.000000
       CHANNELS 3 Yrotation Xrotation Zrotation
       JOINT RightElbow
       {
        OFFSET 0.000000 -29.696600 0.000000
        CHANNELS 3 Yrotation Xrotation Zrotation
        JOINT RightWrist
        {
         OFFSET 0.000000 -24.004700 0.000000
         CHANNELS 3 Yrotation Xrotation Zrotation
         End Site
         {
          OFFSET 0.000000 -17.728500 0.000000
         }
        }
       }
      }
     }
     JOINT LeftCollar
     {
      OFFSET 2.921100 9.558500 0.000000
      CHANNELS 3 Yrotation Xrotation Zrotation
      JOINT LeftShoulder
      {
       OFFSET 13.519700 0.000000 0.000000
       CHANNELS 3 Yrotation Xrotation Zrotation
       JOINT LeftElbow
       {
        OFFSET 0.000000 -29.696600 0.000000
        CHANNELS 3 Yrotation Xrotation Zrotation
        JOINT LeftWrist
        {
         OFFSET 0.000000 -24.004700 0.000000
         CHANNELS 3 Yrotation Xrotation Zrotation
         End Site
         {
          OFFSET 0.000000 -17.728500 0.000000
         }
        }
       }
      }
     }
    }
   }
  }
 }
 JOINT RightHip
 {
  OFFSET -7.771700 -0.012900 -0.001300
  CHANNELS 3 Yrotation Xrotation Zrotation
  JOINT RightKnee
  {
   OFFSET 0.000000 -40.869800 0.001200
   CHANNELS 3 Yrotation Xrotation Zrotation
   JOINT RightAnkle
   {
    OFFSET 0.000000 -39.717900 0.002100
    CHANNELS 3 Yrotation Xrotation Zrotation
    JOINT RightToe
    {
     OFFSET 0.000000 -4.965400 11.033500
     CHANNELS 3 Yrotation Xrotation Zrotation
     End Site
     {
      OFFSET 0.000000 -1.423100 5.872300
     }
    }
   }
  }
 }
 JOINT LeftHip
 {
  OFFSET 7.771700 -0.012900 -0.001300
  CHANNELS 3 Yrotation Xrotation Zrotation
  JOINT LeftKnee
  {
   OFFSET 0.000000 -40.869800 0.001200
   CHANNELS 3 Yrotation Xrotation Zrotation
   JOINT LeftAnkle
   {
    OFFSET 0.000000 -39.717900 0.002100
    CHANNELS 3 Yrotation Xrotation Zrotation
    JOINT LeftToe
    {
     OFFSET 0.000000 -4.965400 11.033500
     CHANNELS 3 Yrotation Xrotation Zrotation
     End Site
     {
      OFFSET 0.000000 -1.423100 5.872300
     }
    }
   }
  }
 }
}
MOTION
Frames: 12
Frame Time: 0.008333
0.000000 85.388000 0.000000 0.000000 -5.767877 0.000000 0.000000 11.653817 0.000000 0.000000 -5.885947 0.000000 0.000000 -0.000000 0.000000 0.000000 -0.000000 0.000000 0.000000 12.528835 0.000000 0.000000 0.711642 0.000000 0.000000 -0.000000 0.000000 0.000000 0.000000 -90.000000 0.000000 -2.309062 0.000000 0.000000 2.309062 0.000000 0.000000 -0.000000 0.000000 0.000000 -0.000000 90.000000 0.000000 -2.309062 0.000000 0.000000 2.309062 0.000000 0.000000 8.520406 0.000000 0.000000 1.905762 0.000000 -0.000000 -4.658285 0.000000 0.000000 -0.000000 0.000000 0.000000 8.520406 0.000000 0.000000 1.905762 0.000000 -0.000000 -4.658285 0.000000 0.000000 -0.000000 0.000000
-64.078831 61.989821 15.263822 174.865360 -51.842314 -0.141153 5.244541 25.663898 2.496926 0.766948 4.333249 0.237036 1.204754 6.725684 0.469615 4.094879 21.102599 1.936062 6.807764 17.294589 2.064767 11.870691 -3.594028 1.518247 3.228278 3.445650 6.631377 2.571698 -8.118417 -15.392414 -77.961067 -56.980129 118.721026 3.857204 8.565631 -10.690125 -11.847456 2.591342 -0.555431 2.520781 -25.617520 19.806979 66.416518 -60.403540 -76.302765 20.186308 -6.275579 10.279952 1.414395 -15.314113 -3.043916 -10.181702 63.358577 -13.786893 1.339176 -7.211173 8.429418 0.022254 -0.158891 0.027385 -4.274480 -12.900088 4.444134 27.388014 74.708409 29.491490 1.208704 -9.268332 -6.236511 0.041001 0.137791 0.002596
-64.079250 61.989181 15.264302 174.865133 -51.873164 -0.143126 5.232285 25.631889 2.518842 0.763841 4.332510 0.240243 1.201757 6.718432 0.476177 4.087000 21.096465 1.954692 6.913630 17.454263 2.118670 12.042001 -3.297417 1.594806 3.217961 3.483303 6.606757 2.647455 -8.193814 -15.412945 -77.849991 -56.976884 118.613742 3.860564 8.564143 -10.697308 -11.964330 2.522200 -0.595787 2.376662 -26.199593 20.095576 66.259195 -59.435145 -75.506645 20.495024 -6.384096 9.694891 1.413722 -15.283512 -3.040989 -10.181165 63.358638 -13.787654 1.345286 -7.208927 8.430226 0.019741 -0.159379 0.023860 -4.276312 -12.868186 4.441935 27.384797 74.707125 29.490956 1.207498 -9.272397 -6.237240 0.044873 0.141034 0.001653
-64.081538 61.988296 15.264702 174.859297 -51.907247 -0.130873 5.218317 25.602735 2.531714 0.761946 4.330227 0.241239 1.197067 6.711381 0.485055 4.078011 21.089534 1.973205 7.024991 17.612956 2.176147 12.222280 -3.002696 1.676277 3.187827 3.465927 6.618450 2.746169 -8.207820 -15.470814 -77.736223 -56.970285 118.507855 3.867844 8.557698 -10.702430 -12.083890 2.452779 -0.634756 2.237967 -26.788615 20.386025 66.217027 -58.361234 -74.822483 20.730930 -6.514464 9.199038 1.418985 -15.249789 -3.047819 -10.185669 63.358878 -13.795097 1.348009 -7.211512 8.433605 0.023422 -0.154753 0.021255 -4.285076 -12.831040 4.420090 27.426232 74.698288 29.526119 1.220273 -9.276704 -6.239798 0.032925 0.145141 0.000442
-64.082360 61.989303 15.263641 174.855924 -51.958714 -0.129566 5.206393 25.589575 2.556910 0.761450 4.327241 0.244849 1.189821 6.703768 0.491514 4.074277 21.125667 1.965467 7.144887 17.722488 2.261334 12.412423 -2.711300 1.762676 3.151613 3.414233 6.655580 2.853007 -8.226901 -15.531570 -77.704887 -56.974583 118.525485 3.841706 8.580420 -10.757009 -12.205786 2.351035 -0.632565 2.104991 -27.388829 20.671885 66.258594 -57.228509 -74.188364 20.891683 -6.674650 8.817227 1.419389 -15.196902 -3.044667 -10.210470 63.353791 -13.818979 1.358636 -7.206519 8.436234 0.014615 -0.152618 0.015195 -4.286542 -12.778085 4.412726 27.419916 74.697214 29.524753 1.219377 -9.273655 -6.241963 0.035638 0.140238 0.000485
-64.082916 61.990294 15.262517 174.853447 -52.011254 -0.131051 5.193706 25.578392 2.584289 0.758200 4.321436 0.247670 1.185405 6.699040 0.498819 4.059761 21.095827 1.996779 7.266315 17.898984 2.314498 12.610038 -2.427403 1.854316 3.120141 3.456959 6.637942 2.965385 -8.269637 -15.578298 -77.658987 -56.980141 118.494118 3.830660 8.585450 -10.776007 -12.317495 2.312523 -0.679762 1.972795 -28.000126 20.944899 66.343292 -56.098855 -73.559850 21.009746 -6.886952 8.534211 1.418558 -15.142549 -3.041633 -10.235220 63.348369 -13.840156 1.369601 -7.202408 8.437149 0.012793 -0.152798 0.011481 -4.289521 -12.724332 4.406390 27.427952 74.698591 29.541554 1.210010 -9.275720 -6.243731 0.041978 0.135465 0.001453
-64.083904 61.991841 15.260867 174.845088 -52.067608 -0.124853 5.180149 25.575681 2.606126 0.759289 4.311673 0.254032 1.187258 6.732617 0.486104 4.042076 21.032286 2.045881 7.390574 18.068817 2.369782 12.815064 -2.156448 1.950038 3.108608 3.530155 6.593591 3.064485 -8.350828 -15.600542 -77.607345 -56.982378 118.430370 3.830782 8.581799 -10.770635 -12.420636 2.275060 -0.720926 1.832151 -28.609359 21.208744 66.459770 -55.012504 -72.938208 21.120666 -7.159948 8.317200 1.425178 -15.081561 -3.041470 -10.233958 63.342954 -13.836369 1.367115 -7.204757 8.432750 0.011642 -0.147046 0.013906 -4.305046 -12.662594 4.379550 27.430766 74.700847 29.554528 1.243700 -9.280448 -6.260818 0.039913 0.136502 -0.002613
-64.083628 61.993018 15.259631 174.840021 -52.119774 -0.128047 5.176992 25.599130 2.626041 0.751324 4.275835 0.270414 1.191504 6.762414 0.475013 4.021406 20.997254 2.080755 7.520230 18.206841 2.439127 13.025821 -1.900346 2.047172 3.099830 3.575539 6.560747 3.168104 -8.432834 -15.624963 -77.562455 -56.984413 118.369260 3.830987 8.576937 -10.763793 -12.516192 2.211304 -0.738679 1.681188 -29.195826 21.477277 66.614998 -53.981693 -72.350386 21.246256 -7.484398 8.144463 1.425294 -15.025916 -3.033502 -10.237801 63.339407 -13.837521 1.370024 -7.209236 8.430290 0.009449 -0.142012 0.012640 -4.309066 -12.608628 4.376878 27.427485 74.705342 29.557990 1.247322 -9.283800 -6.267991 0.047930 0.135319 -0.003985
-64.082402 61.993202 15.259371 174.825535 -52.162129 -0.128427 5.156903 25.579170 2.658224 0.754878 4.282155 0.266448 1.158918 6.701963 0.516784 4.034791 21.086648 2.035604 7.648899 18.302399 2.539318 13.236292 -1.658141 2.143264 3.057068 3.564714 6.577740 3.304710 -8.488265 -15.675786 -77.521615 -56.981392 118.306064 3.835852 8.573428 -10.749573 -12.622863 2.114674 -0.716341 1.528437 -29.749232 21.754893 66.808767 -53.037101 -71.807699 21.409359 -7.830074 8.017667 1.430150 -14.980764 -3.017677 -10.239122 63.331802 -13.833566 1.359992 -7.209838 8.421240 0.018713 -0.135326 0.016183 -4.309219 -12.563478 4.381375 27.435440 74.706078 29.566131 1.251668 -9.287994 -6.269277 0.045675 0.136369 -0.003863
-64.083130 61.996516 15.256638 174.792972 -52.225788 -0.099666 5.140226 25.586193 2.677427 0.737918 4.253725 0.285697 1.170722 6.738924 0.501890 4.033384 21.109171 2.021482 7.778504 18.395515 2.643643 13.442860 -1.427953 2.237828 2.976988 3.550810 6.635544 3.489307 -8.525941 -15.770963 -77.443243 -56.969852 118.168337 3.863404 8.547530 -10.688945 -12.732514 2.016049 -0.688530 1.387339 -30.273917 22.029287 67.030269 -52.209723 -71.304264 21.613443 -8.164795 7.944932 1.450249 -14.915498 -3.018953 -10.236561 63.329795 -13.829206 1.357886 -7.211349 8.413877 0.022136 -0.133107 0.019647 -4.311674 -12.491674 4.354919 27.502911 74.693616 29.622939 1.273296 -9.287026 -6.269614 0.026928 0.134734 -0.011741
-64.080315 61.997504 15.256251 174.774933 -52.269087 -0.102828 5.131319 25.587113 2.714492 0.727765 4.240340 0.297856 1.171371 6.749178 0.500695 4.003989 21.063821 2.091299 7.900740 18.564545 2.659973 13.646072 -1.208617 2.332818 2.946089 3.627560 6.583553 3.639596 -8.579075 -15.846431 -77.436119 -56.958749 118.152681 3.862395 8.552785 -10.684302 -12.820168 1.963451 -0.761039 1.265838 -30.780189 22.291159 67.267650 -51.507620 -70.837053 21.837491 -8.477309 7.928283 1.456059 -14.871622 -2.995887 -10.237043 63.326394 -13.828823 1.353850 -7.209900 8.409019 0.022422 -0.132154 0.018535 -4.307417 -12.444927 4.363474 27.463865 74.699387 29.600386 1.279993 -9.289436 -6.284002 0.035244 0.132914 -0.008423
-64.077254 61.997675 15.256724 174.769297 -52.303412 -0.116084 5.122796 25.591325 2.747529 0.717881 4.231198 0.308985 1.165230 6.747624 0.507396 3.990255 21.059196 2.109902 8.021968 18.679723 2.729870 13.846642 -1.000767 2.427540 2.922731 3.659818 6.579978 3.729658 -8.591352 -15.914025 -77.471264 -56.947231 118.224764 3.861833 8.557453 -10.684956 -12.911745 1.890181 -0.762846 1.148328 -31.270112 22.543875 67.518030 -50.935611 -70.388208 22.067582 -8.767655 7.955419 1.455320 -14.834635 -2.970899 -10.249762 63.318957 -13.838188 1.349586 -7.211451 8.402406 0.027492 -0.126754 0.021829 -4.320353 -12.407288 4.363269 27.450730 74.702723 29.607473 1.297012 -9.293840 -6.307425 0.041644 0.134045 -0.006972
